<?xml version="1.0" standalone="no"?>
<!DOCTYPE svg PUBLIC "-//W3C//DTD SVG 20010904//EN" "http://www.w3.org/TR/2001/REC-SVG-20010904/DTD/svg10.dtd">
<svg version="1.0" xmlns="http://www.w3.org/2000/svg"
 width="268.000000pt" height="150.000000pt" viewBox="0 0 268.000000 150.000000"
 preserveAspectRatio="xMidYMid meet">
<metadata>
Created by potrace 1.16, written by Peter Selinger 2001-2019
</metadata>
<g transform="translate(0.000000,150.000000) scale(0.100000,-0.100000)"
fill="#ffffff" stroke="none">
<path d="M56 1479 l-26 -20 0 -639 0 -639 22 -15 c33 -23 333 -23 366 0 l22
15 0 639 0 639 -26 20 c-24 19 -40 21 -179 21 -139 0 -155 -2 -179 -21z"/>
<path d="M529 1471 l-29 -29 0 -346 c0 -232 4 -353 11 -369 18 -40 49 -47 208
-47 135 0 151 2 175 21 l26 20 0 369 0 369 -26 20 c-24 19 -40 21 -181 21
l-155 0 -29 -29z"/>
<path d="M1006 1475 l-26 -24 0 -494 0 -494 26 -27 27 -26 -43 0 c-86 0 -142
-97 -144 -244 0 -42 4 -52 30 -72 41 -34 125 -34 158 -1 23 23 23 23 32 3 8
-19 18 -21 132 -22 67 -1 125 3 128 8 3 5 14 54 24 110 18 98 29 121 60 115
15 -2 16 -17 8 -143 -4 -69 17 -94 79 -94 64 0 83 13 83 58 l1 37 14 -32 c19
-45 61 -63 143 -63 112 0 163 46 186 168 25 129 -6 176 -113 174 l-58 -1 13
72 c20 113 23 107 -46 107 -33 0 -60 -2 -60 -5 0 -18 -71 -398 -75 -405 -4 -6
-16 -10 -27 -10 -18 0 -20 4 -14 37 19 109 19 158 0 180 -30 34 -117 35 -153
2 l-23 -22 7 22 c6 21 4 22 -52 19 l-58 -3 -20 -113 c-18 -102 -22 -113 -43
-119 -12 -3 -26 -3 -29 0 -3 3 4 55 15 114 11 59 18 111 15 116 -6 10 -101 9
-105 -2 -1 -5 -12 -3 -22 5 -18 12 -2 14 132 14 139 0 154 2 172 20 19 19 20
33 20 515 l0 496 -25 24 c-24 24 -28 25 -183 25 -155 0 -160 -1 -186 -25z"/>
<path d="M492 328 c-24 -138 -39 -245 -34 -250 5 -5 33 -8 63 -6 l54 3 12 65
c21 109 22 110 46 110 19 0 25 -11 47 -88 l25 -87 55 -3 c83 -3 84 -1 50 113
-17 55 -31 109 -32 120 -1 11 31 71 70 133 40 62 72 117 72 122 0 6 -29 10
-64 10 l-64 0 -63 -100 c-41 -64 -70 -100 -81 -100 -22 0 -22 -4 -3 93 22 113
24 107 -48 107 l-62 0 -43 -242z"/>
<path d="M2516 409 c-15 -4 -36 -15 -46 -24 -18 -16 -18 -16 -13 4 5 19 1 21
-51 21 -31 0 -56 -1 -56 -3 0 -2 -9 -53 -20 -113 -11 -60 -20 -122 -20 -137 0
-18 -4 -26 -11 -21 -6 3 -9 14 -6 24 3 13 0 16 -14 13 -24 -7 -25 16 -4 124
23 122 33 112 -107 112 -136 0 -164 -9 -196 -61 -36 -58 -54 -207 -29 -239 33
-43 139 -55 172 -19 17 19 18 19 43 0 25 -20 106 -28 116 -12 3 5 30 4 60 -1
29 -6 60 -7 68 -4 10 3 20 40 32 108 18 111 28 132 60 127 23 -3 24 -7 11
-124 -7 -65 -6 -73 14 -93 24 -24 104 -29 133 -8 21 16 28 93 9 89 -34 -8 -38
4 -25 80 15 82 10 135 -15 147 -28 14 -75 19 -105 10z"/>
<path d="M440 33 c0 -17 57 -18 1067 -16 588 1 1092 2 1121 3 39 0 52 4 52 15
0 13 -131 15 -1120 15 -1060 0 -1120 -1 -1120 -17z"/>
</g>
</svg>
